<svg width="48" height="48" viewBox="0 0 48 48" fill="none" xmlns="http://www.w3.org/2000/svg">
<path d="M1.34009 20.51L5.98009 19.17L7.32009 14.53L8.66009 19.17L13.3001 20.51L8.66009 21.85L7.32009 26.49L5.98009 21.85L1.34009 20.51ZM10.9101 13.32L12.2501 17.96L13.5901 13.32L18.2301 11.98L13.5901 10.64L12.2501 6L10.9101 10.64L6.27009 11.98L10.9101 13.32ZM25.3701 17.72L27.1601 23.91L28.9501 17.72L35.1401 15.93L28.9501 14.14L27.1601 7.95L25.3701 14.14L19.1801 15.93L25.3701 17.72ZM34.4201 18.31V42H42.0001V18.31H34.4201ZM4.13009 42H12.8801L17.9501 33.23L23.0201 42H31.7701L17.9501 18.07L4.13009 42Z" fill="black"/>
</svg>
