<svg width="48" height="48" viewBox="0 0 48 48" fill="none" xmlns="http://www.w3.org/2000/svg">
<path d="M40 36.1H38V20C38 12.78 32.52 6.83 25.5 6.08V5.5C25.5 4.67 24.83 4 24 4C23.17 4 22.5 4.67 22.5 5.5V6.08C15.48 6.83 10 12.77 10 20V36.1H8V38.7H18.23C18.48 41.66 20.97 44 24 44C27.03 44 29.52 41.66 29.77 38.7H40V36.1ZM12.6 20C12.6 13.71 17.71 8.6 24 8.6C30.29 8.6 35.4 13.71 35.4 20V36.1H12.6V20ZM24 41.4C22.41 41.4 21.09 40.23 20.85 38.7H27.15C26.91 40.23 25.59 41.4 24 41.4Z" fill="black"/>
</svg>
