<svg width="48" height="48" viewBox="0 0 48 48" fill="none" xmlns="http://www.w3.org/2000/svg">
<path d="M42 8.5H6C4.9 8.5 4 9.4 4 10.5V38C4 39.1 4.9 40 6 40H42C43.1 40 44 39.1 44 38V10.5C44 9.4 43.1 8.5 42 8.5ZM41.4 37.4H6.6V11.1H41.4V37.4ZM17.5 24C20.26 24 22.5 21.76 22.5 19C22.5 16.24 20.26 14 17.5 14C14.74 14 12.5 16.24 12.5 19C12.5 21.76 14.74 24 17.5 24ZM17.5 16.6C18.82 16.6 19.9 17.68 19.9 19C19.9 20.32 18.82 21.4 17.5 21.4C16.18 21.4 15.1 20.32 15.1 19C15.1 17.68 16.18 16.6 17.5 16.6ZM12.3 34.5H9.7V30.5C9.7 27.58 12.08 25.2 15 25.2H20C22.92 25.2 25.3 27.58 25.3 30.5V34.5H22.7V30.5C22.7 29.01 21.49 27.8 20 27.8H15C13.51 27.8 12.3 29.01 12.3 30.5V34.5ZM38.5 25.3H28V22.7H38.5V25.3ZM38.5 18.6H28V16H38.5V18.6ZM38.5 32H28V29.4H38.5V32Z" fill="black"/>
</svg>
