<svg width="48" height="48" viewBox="0 0 48 48" fill="none" xmlns="http://www.w3.org/2000/svg">
<path d="M39.4 8.6V39.4H8.6V8.6H39.4ZM40 6H8C6.9 6 6 6.9 6 8V40C6 41.1 6.9 42 8 42H40C41.1 42 42 41.1 42 40V8C42 6.9 41.1 6 40 6ZM25.3 27.91C25.3 27.62 25.48 27.37 25.71 27.32C29.68 26.6 32.56 23.45 32.56 19.83C32.56 15.62 28.72 12.19 24 12.19C19.28 12.19 15.44 15.62 15.44 19.83H18.04C18.04 17.05 20.71 14.79 24 14.79C27.29 14.79 29.96 17.05 29.96 19.83C29.96 22.19 27.98 24.26 25.25 24.76C23.77 25.03 22.7 26.35 22.7 27.91V30H25.3V27.91ZM24 33C22.9 33 22 33.9 22 35C22 36.1 22.9 37 24 37C25.1 37 26 36.1 26 35C26 33.9 25.1 33 24 33Z" fill="black"/>
</svg>
