<svg width="48" height="48" viewBox="0 0 48 48" fill="none" xmlns="http://www.w3.org/2000/svg">
<path d="M26 38C26 39.1 25.1 40 24 40C22.9 40 22 39.1 22 38C22 36.9 22.9 36 24 36C25.1 36 26 36.9 26 38ZM24 8C17.77 8 12.71 12.5 12.71 18.02H15.31C15.31 13.93 19.21 10.59 24 10.59C28.79 10.59 32.69 13.92 32.69 18.02C32.69 21.51 29.79 24.56 25.8 25.28C24 25.6 22.69 27.22 22.69 29.13V33H25.29V29.13C25.29 28.49 25.71 27.94 26.26 27.84C31.49 26.89 35.28 22.76 35.28 18.02C35.28 12.49 30.21 8 23.99 8H24Z" fill="black"/>
</svg>
