<svg width="48" height="48" viewBox="0 0 48 48" fill="none" xmlns="http://www.w3.org/2000/svg">
<path d="M24.0698 6.6C33.6598 6.6 41.4698 14.41 41.4698 24C41.4698 33.59 33.6598 41.4 24.0698 41.4C14.4798 41.4 6.66982 33.59 6.66982 24C6.66982 14.41 14.4798 6.6 24.0698 6.6ZM24.0698 4C13.0198 4 4.06982 12.95 4.06982 24C4.06982 35.05 13.0198 44 24.0698 44C35.1198 44 44.0698 35.05 44.0698 24C44.0698 12.95 35.1098 4 24.0698 4ZM33.2198 18.92C33.2198 22.81 30.1198 26.19 25.8498 26.97C25.5398 27.02 25.2998 27.35 25.2998 27.72V30H22.6998V27.72C22.6998 26.08 23.8298 24.69 25.3798 24.41C28.4198 23.86 30.6198 21.55 30.6198 18.92C30.6198 15.82 27.6498 13.3 23.9998 13.3C20.3498 13.3 17.3798 15.82 17.3798 18.92H14.7798C14.7798 14.39 18.9198 10.7 23.9998 10.7C29.0798 10.7 33.2198 14.39 33.2198 18.92ZM25.9998 35C25.9998 36.1 25.0998 37 23.9998 37C22.8998 37 21.9998 36.1 21.9998 35C21.9998 33.9 22.8998 33 23.9998 33C25.0998 33 25.9998 33.9 25.9998 35Z" fill="black"/>
</svg>
