<svg width="48" height="48" viewBox="0 0 48 48" fill="none" xmlns="http://www.w3.org/2000/svg">
<path d="M24.0002 17C20.1302 17 17.0002 20.13 17.0002 24C17.0002 27.87 20.1302 31 24.0002 31C27.8702 31 31.0002 27.87 31.0002 24C31.0002 20.13 27.8702 17 24.0002 17ZM24.0002 28.4C21.5702 28.4 19.6002 26.43 19.6002 24C19.6002 21.57 21.5702 19.6 24.0002 19.6C26.4302 19.6 28.4002 21.57 28.4002 24C28.4002 26.43 26.4302 28.4 24.0002 28.4ZM40.8602 26.8L38.0502 25.18C38.0502 25.13 38.0502 25.08 38.0502 25.04C38.1002 24.3 38.1002 23.56 38.0302 22.83L40.8502 21.2C41.0002 21.12 41.1202 21.01 41.2402 20.9C41.2602 20.88 41.2802 20.85 41.3002 20.83C41.3902 20.73 41.4702 20.63 41.5402 20.52C41.5502 20.5 41.5702 20.47 41.5802 20.45C41.7402 20.17 41.8202 19.86 41.8302 19.54C41.8302 19.49 41.8302 19.45 41.8302 19.4C41.8302 19.29 41.8102 19.17 41.7902 19.06C41.7902 19.02 41.7702 18.97 41.7602 18.93C41.7202 18.78 41.6602 18.62 41.5702 18.48L39.5902 15.04L37.5802 11.56C37.5002 11.41 37.3902 11.29 37.2802 11.17C37.2502 11.14 37.2102 11.11 37.1802 11.08C37.0902 11 37.0002 10.93 36.9002 10.87C36.8602 10.85 36.8202 10.82 36.7802 10.8C36.5002 10.65 36.1902 10.57 35.8702 10.57C35.8402 10.57 35.8102 10.57 35.7902 10.57C35.6602 10.57 35.5302 10.59 35.4002 10.62C35.3702 10.62 35.3402 10.63 35.3002 10.64C35.1402 10.68 34.9902 10.74 34.8502 10.82L32.0302 12.45C31.4302 12.03 30.7902 11.66 30.1202 11.33C30.0802 11.31 30.0302 11.28 29.9902 11.26V8.02002C29.9902 6.92002 29.0902 6.02002 27.9902 6.02002H19.9902C19.8202 6.02002 19.6702 6.05002 19.5102 6.08002C19.4602 6.09002 19.4002 6.11002 19.3502 6.13002C19.2502 6.16002 19.1602 6.20002 19.0602 6.25002C19.0102 6.28002 18.9602 6.30002 18.9202 6.33002C18.7902 6.41002 18.6702 6.50002 18.5602 6.61002C18.4502 6.72002 18.3602 6.85002 18.2702 6.99002C18.2502 7.02002 18.2402 7.05002 18.2202 7.08002C18.1602 7.18002 18.1202 7.30002 18.0802 7.41002C18.0702 7.45002 18.0502 7.49002 18.0402 7.54002C18.0102 7.67002 17.9902 7.82002 17.9802 7.96002C17.9802 7.98002 17.9802 8.00002 17.9802 8.02002V11.27C17.6302 11.43 17.2902 11.61 16.9602 11.8C16.9602 11.8 16.9402 11.8 16.9402 11.81C16.9402 11.81 16.9402 11.81 16.9302 11.81C16.5902 12.01 16.2702 12.22 15.9502 12.44L15.7402 12.32L13.1302 10.81C13.1302 10.81 13.0902 10.8 13.0802 10.79C12.9502 10.72 12.8202 10.67 12.6902 10.63C12.6502 10.62 12.6002 10.61 12.5602 10.6C12.4402 10.57 12.3202 10.56 12.2002 10.56C12.1702 10.56 12.1302 10.56 12.1002 10.56C11.9402 10.56 11.7802 10.58 11.6302 10.62C11.4802 10.66 11.3402 10.72 11.2102 10.79C11.1602 10.82 11.1202 10.85 11.0702 10.87C10.9802 10.93 10.9002 10.99 10.8202 11.06C10.7802 11.1 10.7402 11.13 10.7002 11.17C10.5902 11.28 10.4902 11.41 10.4102 11.55L9.81016 12.59L6.42016 18.47C5.87016 19.42 6.20016 20.65 7.15016 21.2L9.96016 22.82C9.96016 22.87 9.96016 22.92 9.96016 22.96C9.91016 23.7 9.91016 24.44 9.98016 25.17L7.16016 26.8C7.01016 26.88 6.89016 26.99 6.77016 27.1C6.75016 27.12 6.73016 27.15 6.71016 27.17C6.62016 27.27 6.54016 27.37 6.47016 27.48C6.46016 27.5 6.44016 27.53 6.43016 27.55C6.27016 27.83 6.19016 28.14 6.18016 28.46C6.18016 28.51 6.18016 28.55 6.18016 28.6C6.18016 28.71 6.20016 28.83 6.22016 28.94C6.22016 28.98 6.24016 29.03 6.25016 29.07C6.29016 29.22 6.35016 29.38 6.44016 29.52L8.42016 32.96L10.4302 36.44C10.5102 36.59 10.6202 36.71 10.7302 36.83C10.7602 36.86 10.8002 36.89 10.8302 36.92C10.9202 37 11.0102 37.07 11.1102 37.13C11.1502 37.15 11.1902 37.18 11.2302 37.2C11.5102 37.35 11.8202 37.43 12.1402 37.43C12.1702 37.43 12.2002 37.43 12.2202 37.43C12.3502 37.43 12.4802 37.41 12.6102 37.38C12.6402 37.38 12.6702 37.37 12.7102 37.36C12.8702 37.32 13.0202 37.26 13.1602 37.18L15.9802 35.55C16.5802 35.97 17.2202 36.34 17.8902 36.67C17.9302 36.69 17.9802 36.72 18.0202 36.74V39.98C18.0202 41.08 18.9202 41.98 20.0202 41.98H28.0202C28.1902 41.98 28.3402 41.95 28.5002 41.92C28.5502 41.91 28.6102 41.89 28.6602 41.87C28.7602 41.84 28.8502 41.8 28.9502 41.75C29.0002 41.72 29.0502 41.7 29.0902 41.67C29.2202 41.59 29.3402 41.5 29.4502 41.39C29.5602 41.28 29.6502 41.15 29.7402 41.01C29.7602 40.98 29.7702 40.95 29.7902 40.92C29.8502 40.82 29.8902 40.7 29.9302 40.59C29.9402 40.55 29.9602 40.51 29.9702 40.46C30.0002 40.33 30.0202 40.18 30.0302 40.04C30.0302 40.02 30.0302 40 30.0302 39.98V36.73C30.3802 36.57 30.7202 36.39 31.0502 36.2C31.0502 36.2 31.0702 36.2 31.0702 36.19C31.0702 36.19 31.0702 36.19 31.0802 36.19C31.4202 35.99 31.7402 35.78 32.0602 35.56L32.2702 35.68L34.8802 37.19C34.8802 37.19 34.9202 37.2 34.9302 37.21C35.0602 37.28 35.1902 37.33 35.3202 37.37C35.3602 37.38 35.4102 37.39 35.4502 37.4C35.5702 37.43 35.6902 37.44 35.8102 37.44C35.8402 37.44 35.8802 37.44 35.9102 37.44C36.0702 37.44 36.2302 37.42 36.3802 37.38C36.5302 37.34 36.6702 37.28 36.8002 37.21C36.8502 37.18 36.8902 37.15 36.9402 37.13C37.0302 37.07 37.1102 37.01 37.1902 36.94C37.2302 36.9 37.2702 36.87 37.3102 36.83C37.4202 36.72 37.5202 36.59 37.6002 36.45L38.2002 35.41L41.5902 29.53C42.1402 28.58 41.8102 27.35 40.8602 26.8ZM35.6402 34.64L34.1602 33.78L32.8502 33.02C32.2602 32.68 31.5202 32.73 30.9702 33.14C30.6602 33.37 30.3402 33.59 30.0102 33.79C29.9302 33.85 29.8402 33.89 29.7502 33.94C29.6602 33.99 29.5802 34.05 29.4902 34.09C29.1502 34.28 28.8002 34.44 28.4402 34.6C27.8102 34.87 27.4002 35.48 27.4002 36.17V39.4H20.6102V36.17C20.6102 36.17 20.6002 36.11 20.6002 36.08C20.5602 35.43 20.1702 34.86 19.5702 34.6C19.3302 34.5 19.1102 34.38 18.8802 34.26C18.7602 34.2 18.6402 34.15 18.5302 34.09C18.5202 34.09 18.5102 34.08 18.5002 34.07C18.4202 34.03 18.3502 33.99 18.2702 33.95C18.1802 33.9 18.1002 33.85 18.0202 33.79C17.6802 33.59 17.3602 33.37 17.0602 33.14C16.5102 32.73 15.7802 32.68 15.1802 33.02L13.8702 33.77L12.3802 34.63L10.6702 31.67L8.98016 28.75L10.4702 27.89L11.7802 27.13C12.3702 26.79 12.7002 26.12 12.6102 25.44C12.5602 25.06 12.5302 24.67 12.5302 24.28C12.5202 24.18 12.5202 24.08 12.5202 23.98C12.5202 23.9 12.5202 23.81 12.5202 23.73C12.5202 23.72 12.5202 23.7 12.5202 23.69V23.66C12.5202 23.28 12.5602 22.9 12.6002 22.53C12.6802 21.85 12.3602 21.19 11.7702 20.84L10.4602 20.08L8.98016 19.23L12.3802 13.35L13.8602 14.21L15.1702 14.97C15.7702 15.31 16.5102 15.26 17.0602 14.85C17.1002 14.82 17.1402 14.8 17.1702 14.78C17.4402 14.58 17.7202 14.38 18.0102 14.21C18.1402 14.12 18.2802 14.05 18.4202 13.97C18.4302 13.97 18.4402 13.95 18.4502 13.95C18.4502 13.95 18.4602 13.95 18.4702 13.95C18.4902 13.95 18.5002 13.93 18.5202 13.92L19.5702 13.47C20.2002 13.2 20.6102 12.58 20.6102 11.9V8.62002H27.4002V11.85C27.4002 12.02 27.4302 12.19 27.4802 12.35C27.4802 12.38 27.5102 12.41 27.5202 12.44C27.5702 12.56 27.6202 12.69 27.6902 12.8C27.7102 12.84 27.7502 12.86 27.7802 12.9C27.8502 12.99 27.9302 13.09 28.0202 13.17C28.1502 13.27 28.2902 13.36 28.4502 13.43C28.8002 13.58 29.1502 13.75 29.4902 13.94C29.5802 13.98 29.6702 14.03 29.7502 14.08C29.8102 14.12 29.8702 14.15 29.9302 14.19C29.9502 14.2 29.9802 14.22 30.0002 14.23L30.9102 14.91C31.4602 15.32 32.2002 15.36 32.7902 15.02L34.1502 14.24L35.6402 13.38L37.3502 16.34L39.0402 19.26L37.5502 20.12L36.2402 20.88C35.6502 21.22 35.3202 21.89 35.4102 22.57C35.4602 22.95 35.4902 23.34 35.4902 23.73C35.5002 23.83 35.5002 23.93 35.5002 24.03C35.5002 24.11 35.5002 24.2 35.5002 24.28C35.5002 24.29 35.5002 24.31 35.5002 24.32C35.5002 24.71 35.4602 25.09 35.4102 25.48C35.3302 26.16 35.6502 26.82 36.2502 27.17L37.5602 27.93L39.0402 28.78L35.6402 34.66V34.64Z" fill="black"/>
</svg>
