<svg width="48" height="48" viewBox="0 0 48 48" fill="none" xmlns="http://www.w3.org/2000/svg">
<path d="M34.5 30C32.69 30 31.07 30.8 29.97 32.07L18.75 25.75C18.91 25.19 19 24.61 19 24C19 23.39 18.91 22.81 18.75 22.25L29.97 15.93C31.07 17.2 32.69 18 34.5 18C37.81 18 40.5 15.31 40.5 12C40.5 8.69 37.81 6 34.5 6C31.19 6 28.5 8.69 28.5 12C28.5 12.57 28.58 13.11 28.73 13.63L17.51 19.96C16.37 18.61 14.66 17.75 12.75 17.75C9.3 17.75 6.5 20.55 6.5 24C6.5 27.45 9.3 30.25 12.75 30.25C14.66 30.25 16.37 29.39 17.51 28.04L28.73 34.37C28.58 34.89 28.5 35.43 28.5 36C28.5 39.31 31.19 42 34.5 42C37.81 42 40.5 39.31 40.5 36C40.5 32.69 37.81 30 34.5 30ZM31.1 12C31.1 10.13 32.63 8.6 34.5 8.6C36.37 8.6 37.9 10.13 37.9 12C37.9 13.87 36.37 15.4 34.5 15.4C33.67 15.4 32.91 15.1 32.32 14.6C31.64 14.04 31.19 13.21 31.12 12.29C31.1 12.19 31.1 12.1 31.1 12ZM12.75 27.65C10.74 27.65 9.1 26.01 9.1 24C9.1 21.99 10.74 20.35 12.75 20.35C13.69 20.35 14.54 20.7 15.18 21.28C15.83 21.86 16.27 22.68 16.37 23.59C16.39 23.72 16.4 23.86 16.4 24C16.4 24.14 16.39 24.28 16.37 24.41C16.27 25.32 15.83 26.14 15.18 26.72C14.54 27.3 13.69 27.65 12.75 27.65ZM34.5 39.4C32.63 39.4 31.1 37.87 31.1 36C31.1 35.9 31.1 35.81 31.12 35.71C31.19 34.79 31.64 33.96 32.32 33.4C32.91 32.9 33.67 32.6 34.5 32.6C36.37 32.6 37.9 34.13 37.9 36C37.9 37.87 36.37 39.4 34.5 39.4Z" fill="black"/>
</svg>
