<svg width="48" height="48" viewBox="0 0 48 48" fill="none" xmlns="http://www.w3.org/2000/svg">
<path d="M38 19H30L31.65 10.61C32.02 8.19 30.15 6 27.7 6H23.98C23.23 6 22.55 6.42 22.2 7.08L14.5 22H8C6.9 22 6 22.9 6 24V40C6 41.1 6.9 42 8 42H33.16C35.42 42 37.41 40.48 37.99 38.29L41.98 23.35C42.18 21.01 40.34 19 38 19ZM14.4 39.4H8.6V24.6H14.4V39.4ZM35.48 37.62C35.2 38.67 34.25 39.4 33.16 39.4H17.1V22.63L24.35 8.6H27.7C28.26 8.6 28.61 8.91 28.76 9.09C28.91 9.27 29.15 9.64 29.09 10.17L27.45 18.5L26.84 21.6H38C38.54 21.6 38.88 21.88 39.03 22.05C39.17 22.2 39.38 22.51 39.4 22.95L35.48 37.62Z" fill="black"/>
</svg>
