<svg width="48" height="48" viewBox="0 0 48 48" fill="none" xmlns="http://www.w3.org/2000/svg">
<path d="M39.9998 6H14.8398C12.5798 6 10.5898 7.52 10.0098 9.71L6.01978 24.65C5.81978 26.99 7.65978 29 9.99978 29H17.9998L16.3498 37.39C15.9798 39.81 17.8498 42 20.2998 42H24.0198C24.7698 42 25.4498 41.58 25.7998 40.92L33.4998 26H39.9998C41.0998 26 41.9998 25.1 41.9998 24V8C41.9998 6.9 41.0998 6 39.9998 6ZM30.8998 25.37L23.6498 39.4H20.2998C19.7398 39.4 19.3898 39.09 19.2398 38.91C19.0898 38.73 18.8498 38.36 18.9098 37.83L20.5498 29.5L21.1598 26.4H9.99978C9.45978 26.4 9.11978 26.12 8.96978 25.95C8.82978 25.8 8.61978 25.49 8.59978 25.05L12.5198 10.38C12.7998 9.33 13.7498 8.6 14.8398 8.6H30.8998V25.37ZM39.3998 23.4H33.5998V8.6H39.3998V23.4Z" fill="black"/>
</svg>
