<svg width="48" height="48" viewBox="0 0 48 48" fill="none" xmlns="http://www.w3.org/2000/svg">
<path d="M42 33.7V36.3H36.2999V42H33.7V36.3H28V33.7H33.7V28H36.2999V33.7H42ZM30.5 25.2H17.57C12.68 25.2 8.69995 29.18 8.69995 34.07V42H11.3V34.07C11.3 30.61 14.11 27.8 17.57 27.8H30.5V25.2ZM15.25 14.75C15.25 9.92 19.17 6 24 6C28.83 6 32.75 9.92 32.75 14.75C32.75 19.58 28.83 23.5 24 23.5C19.17 23.5 15.25 19.58 15.25 14.75ZM17.85 14.75C17.85 18.14 20.61 20.9 24 20.9C27.39 20.9 30.15 18.14 30.15 14.75C30.15 11.36 27.39 8.6 24 8.6C20.61 8.6 17.85 11.36 17.85 14.75Z" fill="black"/>
</svg>
