<svg width="48" height="48" viewBox="0 0 48 48" fill="none" xmlns="http://www.w3.org/2000/svg">
<path d="M31.9099 34.07V42H29.3099V34.07C29.3099 30.61 26.4999 27.8 23.0399 27.8H18.0399C14.5799 27.8 11.7699 30.61 11.7699 34.07V42H9.16992V34.07C9.16992 29.18 13.1499 25.2 18.0399 25.2H23.0399C27.9299 25.2 31.9099 29.18 31.9099 34.07ZM37.3299 15.75C37.3299 12.28 34.4999 9.45 31.0299 9.45V12.05C33.0699 12.05 34.7299 13.71 34.7299 15.75C34.7299 17.79 33.0699 19.45 31.0299 19.45V22.05C34.4999 22.05 37.3299 19.22 37.3299 15.75ZM31.0399 23.87V26.47C33.1599 26.47 36.2399 29.6 36.2399 34.5V38H38.8399V34.5C38.8399 28.23 34.7299 23.87 31.0399 23.87ZM11.7899 14.75C11.7899 9.92 15.7099 6 20.5399 6C25.3699 6 29.2899 9.92 29.2899 14.75C29.2899 19.58 25.3699 23.5 20.5399 23.5C15.7099 23.5 11.7899 19.58 11.7899 14.75ZM14.3899 14.75C14.3899 18.14 17.1499 20.9 20.5399 20.9C23.9299 20.9 26.6899 18.14 26.6899 14.75C26.6899 11.36 23.9299 8.6 20.5399 8.6C17.1499 8.6 14.3899 11.36 14.3899 14.75Z" fill="black"/>
</svg>
