<svg width="48" height="48" viewBox="0 0 48 48" fill="none" xmlns="http://www.w3.org/2000/svg">
<path d="M39.3002 34.07V42H36.7002V34.07C36.7002 30.61 33.8902 27.8 30.4302 27.8H17.5702C14.1102 27.8 11.3002 30.61 11.3002 34.07V42H8.7002V34.07C8.7002 29.18 12.6802 25.2 17.5702 25.2H30.4302C35.3202 25.2 39.3002 29.18 39.3002 34.07ZM15.2502 14.75C15.2502 9.92 19.1702 6 24.0002 6C28.8302 6 32.7502 9.92 32.7502 14.75C32.7502 19.58 28.8302 23.5 24.0002 23.5C19.1702 23.5 15.2502 19.58 15.2502 14.75ZM17.8502 14.75C17.8502 18.14 20.6102 20.9 24.0002 20.9C27.3902 20.9 30.1502 18.14 30.1502 14.75C30.1502 11.36 27.3902 8.6 24.0002 8.6C20.6102 8.6 17.8502 11.36 17.8502 14.75Z" fill="black"/>
</svg>
