<svg width="48" height="48" viewBox="0 0 48 48" fill="none" xmlns="http://www.w3.org/2000/svg">
<path d="M35.3699 34.07V42H32.77V34.07C32.77 30.61 29.9599 27.8 26.5 27.8H21.5C18.04 27.8 15.23 30.61 15.23 34.07V42H12.63V34.07C12.63 29.18 16.61 25.2 21.5 25.2H26.5C31.3899 25.2 35.3699 29.18 35.3699 34.07ZM40.7999 15.75C40.7999 12.28 37.97 9.45 34.5 9.45V12.05C36.54 12.05 38.2 13.71 38.2 15.75C38.2 17.79 36.54 19.45 34.5 19.45V22.05C37.97 22.05 40.7999 19.22 40.7999 15.75ZM34.5 23.87V26.47C36.6199 26.47 39.7 29.6 39.7 34.5V38H42.2999V34.5C42.2999 28.24 38.1899 23.87 34.5 23.87ZM13.5 22.05V19.45C11.46 19.45 9.79995 17.79 9.79995 15.75C9.79995 13.71 11.46 12.05 13.5 12.05V9.45C10.03 9.45 7.19995 12.28 7.19995 15.75C7.19995 19.22 10.03 22.05 13.5 22.05ZM13.5 23.87C9.80995 23.87 5.69995 28.24 5.69995 34.5V38H8.29995V34.5C8.29995 29.6 11.38 26.47 13.5 26.47V23.87ZM15.25 14.75C15.25 9.92 19.17 6 24 6C28.83 6 32.75 9.92 32.75 14.75C32.75 19.58 28.83 23.5 24 23.5C19.17 23.5 15.25 19.58 15.25 14.75ZM17.85 14.75C17.85 18.14 20.61 20.9 24 20.9C27.3899 20.9 30.15 18.14 30.15 14.75C30.15 11.36 27.3899 8.6 24 8.6C20.61 8.6 17.85 11.36 17.85 14.75Z" fill="black"/>
</svg>
