<svg width="48" height="48" viewBox="0 0 48 48" fill="none" xmlns="http://www.w3.org/2000/svg">
<path d="M37.75 40.25C37.75 41.22 36.9699 42 36 42C35.03 42 34.25 41.22 34.25 40.25C34.25 39.28 35.03 38.5 36 38.5C36.9699 38.5 37.75 39.28 37.75 40.25ZM36.0099 25.2C32.6799 25.2 29.97 27.64 29.97 30.64H32.57C32.57 29.07 34.1099 27.8 36.0099 27.8C37.9099 27.8 39.45 29.07 39.45 30.64C39.45 31.96 38.31 33.13 36.74 33.41C35.56 33.62 34.7 34.67 34.7 35.91V37.27H37.2999V35.95C40.0499 35.41 42.04 33.19 42.04 30.64C42.04 27.64 39.33 25.2 36 25.2H36.0099ZM8.69995 34.07V42H11.3V34.07C11.3 30.61 14.11 27.8 17.57 27.8H27.5C27.86 26.84 28.41 25.96 29.11 25.2H17.57C12.68 25.2 8.69995 29.18 8.69995 34.07ZM15.25 14.75C15.25 9.92 19.17 6 24 6C28.83 6 32.75 9.92 32.75 14.75C32.75 19.58 28.83 23.5 24 23.5C19.17 23.5 15.25 19.58 15.25 14.75ZM17.85 14.75C17.85 18.14 20.61 20.9 24 20.9C27.39 20.9 30.15 18.14 30.15 14.75C30.15 11.36 27.39 8.6 24 8.6C20.61 8.6 17.85 11.36 17.85 14.75Z" fill="black"/>
</svg>
